<?xml version="1.0" encoding="utf-8"?>
<!-- Generator: Adobe Illustrator 26.1.0, SVG Export Plug-In . SVG Version: 6.00 Build 0)  -->
<svg version="1.1" id="Layer_1" xmlns="http://www.w3.org/2000/svg" xmlns:xlink="http://www.w3.org/1999/xlink" x="0px" y="0px"
	 viewBox="0 0 86.7 32.5" style="enable-background:new 0 0 86.7 32.5;" xml:space="preserve">
<style type="text/css">
	.st0{fill:#F54F00;}
	.st1{enable-background:new    ;}
</style>
<g>
	<path class="st0" d="M18.4,14.5c4.8,0,9.7,1.8,9.7,7.6c0,5.7-6,8.4-12.3,8.4c-7.8,0-11.3-4-12.9-5.6l2.2-2.2
		c1.6,1.4,4.1,4.7,10.8,4.7c5.8,0,9.1-2.2,9.1-5.3c0-3.3-3.3-4.5-5.8-4.5h-5.4c-5,0-9-1.7-9-6.6c0-3.6,3.2-7.9,11.1-7.9
		c5.9,0,9.5,2.9,10.8,3.9l-1.9,2.4c-1.8-1.3-4.3-3.2-8.9-3.2c-5.8,0-8,2.8-8,4.8c0,3.5,4.4,3.5,7.4,3.5L18.4,14.5L18.4,14.5z"/>
	<path class="st0" d="M37.4,29.9h-3V3.6h14.2c3.2,0,8.1,1.3,8.1,7.5c0,5.6-3.6,7.5-8.1,7.5H37.4V29.9z M48.5,15.6
		c2.9,0,5.1-0.9,5.1-4.4c0-3.7-2.5-4.4-5.1-4.4H37.4v8.9h11.1V15.6z"/>
	<path class="st0" d="M83.4,29.9H80l-4.2-9H63.6l-4,9h-3.4L68.4,3.6h3L83.4,29.9z M69.9,7.4l-4.8,10.4h9.5L69.9,7.4z"/>
	<g class="st1">
		<path class="st0" d="M78.5,3.2c0.6,0,1.2,0.2,1.8,0.5c0.6,0.3,1,0.7,1.3,1.3c0.3,0.6,0.5,1.2,0.5,1.8c0,0.6-0.2,1.2-0.5,1.8
			s-0.8,1-1.3,1.3c-0.6,0.3-1.2,0.5-1.8,0.5s-1.2-0.2-1.8-0.5c-0.6-0.3-1-0.7-1.3-1.3s-0.5-1.1-0.5-1.8c0-0.6,0.2-1.2,0.5-1.8
			c0.3-0.6,0.8-1,1.3-1.3C77.2,3.4,77.8,3.2,78.5,3.2z M78.5,3.9c-0.5,0-1,0.1-1.4,0.4s-0.8,0.6-1.1,1c-0.3,0.5-0.4,0.9-0.4,1.4
			c0,0.5,0.1,1,0.4,1.4S76.6,9,77,9.2c0.5,0.3,0.9,0.4,1.4,0.4c0.5,0,1-0.1,1.4-0.4C80.4,9,80.7,8.6,81,8.2s0.4-0.9,0.4-1.4
			c0-0.5-0.1-1-0.4-1.4c-0.3-0.5-0.6-0.8-1.1-1C79.4,4,79,3.9,78.5,3.9z M76.8,8.7V4.9h0.8c0.7,0,1.1,0,1.2,0c0.3,0,0.5,0.1,0.6,0.2
			c0.1,0.1,0.3,0.2,0.4,0.4c0.1,0.2,0.1,0.3,0.1,0.5c0,0.3-0.1,0.5-0.3,0.7C79.5,6.8,79.2,7,78.9,7c0.1,0,0.2,0.1,0.3,0.1
			c0.1,0.1,0.1,0.1,0.3,0.3c0,0,0.1,0.2,0.3,0.5l0.5,0.8h-1L78.9,8c-0.2-0.4-0.4-0.7-0.5-0.8c-0.1-0.1-0.3-0.2-0.5-0.2h-0.2v1.5
			H76.8z M77.6,6.5h0.3c0.5,0,0.7,0,0.8-0.1c0.1,0,0.2-0.1,0.3-0.2c0.1-0.1,0.1-0.2,0.1-0.3c0-0.1,0-0.2-0.1-0.3
			c-0.1-0.1-0.1-0.1-0.3-0.2c-0.1,0-0.4-0.1-0.8-0.1h-0.3V6.5z"/>
	</g>
</g>
</svg>
