<?xml version="1.0" encoding="utf-8"?>
<!-- Generator: Adobe Illustrator 26.1.0, SVG Export Plug-In . SVG Version: 6.00 Build 0)  -->
<svg version="1.1" id="Layer_1" xmlns="http://www.w3.org/2000/svg" xmlns:xlink="http://www.w3.org/1999/xlink" x="0px" y="0px"
	 viewBox="0 0 188 32.5" style="enable-background:new 0 0 188 32.5;" xml:space="preserve">
<style type="text/css">
	.st0{fill:#F54F00;}
</style>
<path class="st0" d="M21.5,29.8H2.3V3.5h3v23.2h16.1L21.5,29.8L21.5,29.8z"/>
<path class="st0" d="M48.6,29.8H26.8V3.5h21.1v3.1H29.8v8h9.5v3.1h-9.5v9h18.8V29.8z"/>
<path class="st0" d="M79,29.8h-3.4l-4.2-9H59.2l-4,9h-3.4L64,3.5h3L79,29.8z M65.5,7.3l-4.8,10.4h9.5L65.5,7.3z"/>
<path class="st0" d="M89.6,29.8h-3V6.6h-9.4V3.5H99v3.1h-9.4V29.8z"/>
<path class="st0" d="M126.5,29.8h-3V17.6H107v12.2h-3V3.5h3v11h16.5v-11h3V29.8z"/>
<path class="st0" d="M155.4,29.8h-21.9V3.5h21.1v3.1h-18.1v8h9.5v3.1h-9.5v9h18.8L155.4,29.8L155.4,29.8z"/>
<path class="st0" d="M185.1,29.8h-3.5l-5.9-10.9h-10.2v10.9h-3V3.5h12.8c3.9,0,10.4,0.7,10.4,7.5c0,5.7-3.6,7.5-6.6,7.8L185.1,29.8z
	 M176.5,15.8c3.4,0,6.1-0.4,6.1-4.7c0-3.3-2.8-4.5-5.6-4.5h-11.6v9.2H176.5z"/>
</svg>
