<?xml version="1.0" encoding="utf-8"?>
<!-- Generator: Adobe Illustrator 26.1.0, SVG Export Plug-In . SVG Version: 6.00 Build 0)  -->
<svg version="1.1" id="Layer_1" xmlns="http://www.w3.org/2000/svg" xmlns:xlink="http://www.w3.org/1999/xlink" x="0px" y="0px"
	 viewBox="0 0 32 36" style="enable-background:new 0 0 32 36;" xml:space="preserve">
<style type="text/css">
	.st0{fill:#F54F00;}
</style>
<g>
	<g>
		<path class="st0" d="M27.1,23.6c0,0.1,0.2-0.1,0.2-0.2c0.6-1.6,0.8-3.4-0.2-4.4c-2.4-2.6-7.2-3.2-8.9-3.9
			c-1.9-0.8-3.9-1.9-4.5-4.1c-0.5-2,0.2-3.8,0.6-4.6c0.2-0.3,0-0.3-0.1-0.1c-0.9,0.9-1.4,2.1-1.7,3.4c-0.3,1.2-0.3,2.6,0.1,3.7
			c0.6,2,3,3.1,4.4,3.7c1.2,0.5,2.2,0.4,6.1,1.9c3.9,1.4,4,4,3.9,4.4C27.1,23.3,27.1,23.4,27.1,23.6z M26,14.6L26,14.6
			c-0.8-0.4-1.7-0.7-2.6-0.9c-2.9-0.9-6.6-1.8-7.6-5.2c-0.3-0.8-0.4-1.9,0-2.7c0.4-0.7,1.1,0.1,1.5,0.3c1.4,1,3,1.7,4.7,1.6
			c1.5-0.1,3.6-1,4-2.7c0.2-1-0.1-1.8-0.7-2.4c-0.3-0.3-0.4-0.3-0.2,0.1c0.4,0.5,0.6,1.1,0.4,1.8c-0.3,1.1-2,1.4-2.9,1.4
			c-2.1,0-3.9-2.7-6-1.4c-1.9,1.2-2.7,3.8-2.2,5.9c0.5,2.3,2.6,3.3,4.5,4.1c1.7,0.7,6.5,1.3,8.9,3.9c2.4,2.6-2,9.8-4.4,7.4
			c0,0-0.4-0.3-0.4-0.3c0,0,0,0,0,0c-0.4-0.4-0.7-0.7-1.1-1.1c-0.2-0.2-0.5-0.4-0.8-0.6c0,0-0.1-0.1-0.1-0.1c-0.8-0.5-1.7-0.8-2.8-1
			c-1.7-0.2-4.1,0.8-5.2,2.2c-0.2,0.2,0.1,0.4,0.5,0.2c1.1-0.7,2.4-0.5,3.5-0.3c2.1,0.4,3.7,3.3,5.7,3.2c0.5-0.1,1.1-0.4,1.2-0.5
			C35.8,20.5,28.2,15.3,26,14.6z"/>
	</g>
	<g>
		<path class="st0" d="M28.5,26.3c-0.1,0-0.2,0.1-0.2,0.1s-4,3.1-4.8,3.1c-0.8,0-4.8-2.7-12.5-2.7c-0.9,0-1.7,0.1-2.4,0.2
			c0.7-0.5,1.9-1.4,2.4-2.4c0.7-1.3,0.8-7.8,0.5-10.9c-1-2.7,0.2-5.6,1.3-7.3c0.7-1.1,1.8-2.1,2.6-2.8c0,0,0.4-0.3,0-0.1
			c-1.5,0.9-4.2,1.4-5.4,0.7C7.8,2.9,6.3,2.6,5.1,2.6c-1.6,0-3.5,1.6-3.5,3.3c0,0,0,0.1,0,0.1c0,1,0.4,1.6,1.1,2
			c0.4,0.3,0.4,0.1,0-0.2C2.4,7.5,2.1,7,2.1,6.5c0,0,0.1-2.1,2.4-1.7c2.3,0.4,2.6,1.5,4,1.8c0,0,0,0,0,0c1.2,0.3,2.4,0.1,3.6-0.4
			c-2.2,2-3.3,4.8-3.3,6.8c0,0,0,0.9,0,0.9c0,0.6-0.4,0.4-0.9,0.5c-1.7,0.2-3,1-3.7,1.6c-0.1,0.2-0.1,0.3,0,0.2
			c1.4-0.7,4.6-0.9,4.6,1.5c0.1,3.8,0.6,7.6-2.6,9.7c-1.4,0.4-2.2,0.8-2.2,0.8C2.7,29,1,30.6,1.8,32.1c0,0,0,0.1,0,0.1
			c0.4,0.9,1.1,1.3,1.9,1.4c0.5,0.1,0.6-0.1,0.2-0.2c-0.5-0.1-1-0.4-1.3-1c0,0-0.8-1.6,1.3-2.4c2.1-0.8,8.5-2.1,14.8,0.8
			c2.7,1.3,3.6,2.2,3.6,2.2s0.1,0.1,0.3,0.1c0.2,0,0.3-0.1,0.3-0.1s5.1-5.9,5.8-6.4C28.6,26.5,28.7,26.4,28.5,26.3z"/>
	</g>
	<g>
		<path class="st0" d="M12.2,15.2c0.2,3.3,0.1,8.2-0.6,9.3c-0.3,0.5-0.7,1-1.2,1.4c-0.2,0.1-0.1,0.3,0.1,0.2c1.5-0.7,3.9-2.9,3.9-5
			l0.1-4C13.6,16.7,13,16.2,12.2,15.2L12.2,15.2z"/>
	</g>
</g>
</svg>
